<svg width="24" height="24" viewBox="0 0 24 24" fill="none" xmlns="http://www.w3.org/2000/svg">
<path d="M16.563 18.5C16.7892 18.5 17.0097 18.4133 17.1737 18.2509C17.4961 17.9259 17.4847 17.4114 17.1455 17.1027L11.5698 12.0065L17.1511 6.8995C17.4904 6.5908 17.5017 6.07631 17.1794 5.75137C16.8571 5.42642 16.3198 5.41559 15.9806 5.72429L9.76023 11.4108C9.59058 11.5624 9.5001 11.7737 9.5001 12.0011C9.5001 12.2286 9.59624 12.4344 9.76023 12.5914L15.9806 18.2779C16.1445 18.4296 16.3538 18.5 16.5687 18.5H16.563Z" fill="#323C4F"/>
<rect x="7" y="5" width="1.6" height="14" rx="0.8" fill="#323C4F"/>
</svg>
