<svg width="24" height="24" viewBox="0 0 24 24" fill="none" xmlns="http://www.w3.org/2000/svg">
<path d="M12.563 18.5C12.7892 18.5 13.0097 18.4133 13.1737 18.2509C13.4961 17.9259 13.4847 17.4114 13.1455 17.1027L7.56978 12.0065L13.1511 6.8995C13.4904 6.5908 13.5017 6.07631 13.1794 5.75137C12.8571 5.42642 12.3198 5.41559 11.9806 5.72429L5.76023 11.4108C5.59058 11.5624 5.5001 11.7737 5.5001 12.0011C5.5001 12.2286 5.59624 12.4344 5.76023 12.5914L11.9806 18.2779C12.1445 18.4296 12.3538 18.5 12.5687 18.5H12.563Z" fill="#818181"/>
<path d="M17.6523 18.5C17.8785 18.5 18.099 18.4133 18.263 18.2508C18.5853 17.9259 18.574 17.4114 18.2347 17.1027L12.659 12.0065L18.2404 6.89949C18.574 6.59079 18.591 6.0763 18.263 5.75136C17.9407 5.43183 17.4034 5.41558 17.0642 5.72428L10.8438 11.4108C10.6742 11.5624 10.5837 11.7736 10.5837 12.0011C10.5837 12.2286 10.6798 12.4344 10.8438 12.5914L17.0642 18.2725C17.2281 18.4241 17.4374 18.4946 17.6523 18.4946V18.5Z" fill="#818181"/>
</svg>
